<svg width="24" height="24" viewBox="0 0 24 24" fill="none" xmlns="http://www.w3.org/2000/svg">
<path d="M4 8H20C21.105 8 22 8.895 22 10V20C22 21.105 21.105 22 20 22H4C2.895 22 2 21.105 2 20V10C2 8.895 2.895 8 4 8Z" stroke="#FF5C39" stroke-width="1.5" stroke-linecap="round" stroke-linejoin="round"/>
<path d="M13.7678 13.2322C14.7441 14.2085 14.7441 15.7915 13.7678 16.7678C12.7915 17.7441 11.2086 17.7441 10.2323 16.7678C9.25595 15.7915 9.25595 14.2085 10.2323 13.2322C11.2086 12.2559 12.7915 12.2559 13.7678 13.2322Z" stroke="#FF5C39" stroke-width="1.5" stroke-linecap="round" stroke-linejoin="round"/>
<path d="M18 17.5V12.5" stroke="#FF5C39" stroke-width="1.5" stroke-linecap="round" stroke-linejoin="round"/>
<path d="M6 17.5V12.5" stroke="#FF5C39" stroke-width="1.5" stroke-linecap="round" stroke-linejoin="round"/>
<path d="M20 5H4" stroke="#FF5C39" stroke-width="1.5" stroke-linecap="round" stroke-linejoin="round"/>
<path d="M19 2H5" stroke="#FF5C39" stroke-width="1.5" stroke-linecap="round" stroke-linejoin="round"/>
</svg>
