<svg width="24" height="26" viewBox="0 0 24 26" fill="none" xmlns="http://www.w3.org/2000/svg">
<path fill-rule="evenodd" clip-rule="evenodd" d="M16.8548 7.23243L5.33324 0.550647C4.89814 0.290047 4.39034 0.139648 3.84694 0.139648C2.72576 0.139648 1.73977 0.818929 1.26692 1.76851L1.35352 1.85509L11.7935 12.2928L16.8548 7.23243ZM0.972977 2.88869C0.971001 2.93103 0.970001 2.97354 0.970001 3.01622V22.9838C0.970001 23.0265 0.970999 23.0689 0.972974 23.1112L11.0863 12.9998L0.972977 2.88869ZM1.26695 24.2314C1.73987 25.181 2.726 25.8603 3.84694 25.8603C4.37864 25.8603 4.87784 25.7166 5.30594 25.4642L5.33994 25.4443L16.8746 18.7869L11.7935 13.7069L1.35352 24.1448L1.26695 24.2314ZM17.7714 18.2694L22.4684 15.5584C23.3707 15.0713 23.9832 14.1201 23.9832 13.0232C23.9832 11.9342 23.3789 10.9877 22.4856 10.499L22.4754 10.492L17.75 7.75155L12.5007 12.9998L17.7714 18.2694Z" fill="#3D3D4A"/>
</svg>
