<svg width="243" height="153" viewBox="0 0 243 153" fill="none" xmlns="http://www.w3.org/2000/svg">
<path d="M242.505 1.22782C242.805 1.08742 242.934 0.730285 242.794 0.430121C242.653 0.129972 242.296 0.000451085 241.996 0.14086L242.505 1.22782ZM147.975 100.398L147.376 100.416L147.975 100.398ZM2.46241 151.923C2.60952 152.22 2.96947 152.341 3.26641 152.194L8.10518 149.797C8.4021 149.65 8.52356 149.29 8.37647 148.993C8.22937 148.696 7.86941 148.575 7.57247 148.722L3.27135 150.852L1.14055 146.551C0.993457 146.254 0.633486 146.133 0.336563 146.28C0.0396253 146.427 -0.0818361 146.787 0.0652689 147.084L2.46241 151.923ZM241.996 0.14086C225.972 7.63595 202.025 21.6234 182.236 39.2447C162.476 56.8398 146.714 78.1906 147.376 100.416L148.575 100.38C147.931 78.723 163.322 57.6937 183.034 40.1409C202.717 22.6144 226.559 8.68624 242.505 1.22782L241.996 0.14086ZM147.376 100.416C147.786 114.222 151.436 123.893 156.788 130.175C162.145 136.463 169.163 139.302 176.187 139.514C190.164 139.936 204.312 129.925 205.408 115.915L204.211 115.821C203.177 129.041 189.724 138.722 176.224 138.314C169.51 138.112 162.821 135.406 157.701 129.397C152.576 123.38 148.98 114 148.575 100.38L147.376 100.416ZM205.408 115.915C206.461 102.453 202.184 88.1566 190.914 77.501C179.644 66.8446 161.452 59.8956 134.799 60.9736L134.848 62.1726C161.274 61.1037 179.116 67.9974 190.09 78.373C201.064 88.7492 205.24 102.674 204.211 115.821L205.408 115.915ZM134.799 60.9736C81.5408 63.1278 20.5223 97.8514 2.43156 151.465L3.56856 151.848C21.4602 98.8253 81.9471 64.3124 134.848 62.1726L134.799 60.9736Z" fill="#FF5C39"/>
</svg>
