<svg width="125" height="23" viewBox="0 0 125 23" fill="none" xmlns="http://www.w3.org/2000/svg">
<g clip-path="url(#clip0_103_546)">
<path d="M12.7 22.5L9.70001 11.5L6.70001 22.5H12.7Z" fill="#FF5C39"/>
<path d="M14.2258 22.4743L12.0194 13.6916L9.66774 4.554L7.37419 13.6916L5.10968 22.4743H0L6.61936 1.27158H12.6581L19.3065 22.4743H14.2258ZM10.6548 8.78272C10.5387 8.36872 10.4226 7.935 10.3065 7.48158C10.1903 7.02815 10.0742 6.55501 9.95806 6.06215C9.86129 5.56929 9.76452 5.06658 9.66774 4.554C9.59032 5.06658 9.49355 5.57915 9.37742 6.09172C9.26129 6.58458 9.14516 7.05772 9.02903 7.51115C8.93226 7.96458 8.82581 8.38843 8.70968 8.78272L7.37419 13.6916L9.66774 4.554L12.0194 13.6916L10.6548 8.78272Z" fill="#3D3D4A"/>
<path d="M25.985 22.77C24.3785 22.77 23.0624 22.0701 22.0366 20.6704C21.0108 19.251 20.4979 17.1711 20.4979 14.4309C20.4979 11.6709 21.0205 9.58114 22.0656 8.16171C23.1108 6.74229 24.4656 6.03257 26.1302 6.03257C26.8269 6.03257 27.4269 6.141 27.9302 6.35786C28.4527 6.555 28.8979 6.831 29.2656 7.18586C29.6527 7.54071 29.9818 7.94486 30.2527 8.39828H30.3689C30.3108 8.08286 30.2527 7.62943 30.1947 7.038C30.1366 6.42686 30.1076 5.80586 30.1076 5.175V0H34.7527V22.4743H31.2398L30.2818 20.3747H30.1076C29.856 20.8084 29.5463 21.2126 29.1785 21.5871C28.8108 21.942 28.3656 22.2279 27.8431 22.4447C27.3205 22.6616 26.7011 22.77 25.985 22.77ZM27.756 19.251C28.7237 19.251 29.4108 18.8961 29.8172 18.1864C30.2431 17.457 30.456 16.3727 30.456 14.9336V14.4604C30.456 12.8833 30.2624 11.6807 29.8753 10.8527C29.4882 10.0247 28.7624 9.61071 27.6979 9.61071C26.9431 9.61071 26.3334 10.0346 25.8689 10.8823C25.4237 11.7103 25.2011 12.9129 25.2011 14.49C25.2011 16.0671 25.4237 17.2599 25.8689 18.0681C26.3334 18.8567 26.9624 19.251 27.756 19.251Z" fill="#3D3D4A"/>
<path d="M42.4349 22.4743L36.7156 6.32829H41.564L44.2059 15.525C44.322 15.8799 44.4091 16.2544 44.4672 16.6487C44.5253 17.043 44.5736 17.4274 44.6124 17.802C44.6511 18.1766 44.6704 18.5216 44.6704 18.837H44.7865C44.8059 18.5019 44.8253 18.147 44.8446 17.7724C44.8833 17.3979 44.9414 17.0233 45.0188 16.6487C45.0962 16.2544 45.1833 15.8799 45.2801 15.525L47.9511 6.32829H52.8285L47.1091 22.4743H42.4349Z" fill="#3D3D4A"/>
<path d="M68.7582 14.3717C68.7582 15.7123 68.584 16.905 68.2356 17.9499C67.9065 18.9947 67.4227 19.8819 66.784 20.6113C66.1453 21.321 65.3614 21.8631 64.4323 22.2377C63.5227 22.5926 62.4969 22.77 61.3549 22.77C60.2904 22.77 59.3033 22.5926 58.3936 22.2377C57.484 21.8631 56.7001 21.321 56.042 20.6113C55.4033 19.8819 54.9001 18.9947 54.5323 17.9499C54.184 16.905 54.0098 15.7123 54.0098 14.3717C54.0098 12.5777 54.3098 11.0696 54.9098 9.84729C55.5098 8.60529 56.3614 7.65901 57.4646 7.00843C58.5678 6.35786 59.8936 6.03258 61.442 6.03258C62.8743 6.03258 64.1323 6.35786 65.2162 7.00843C66.3194 7.65901 67.1807 8.60529 67.8001 9.84729C68.4388 11.0696 68.7582 12.5777 68.7582 14.3717ZM58.742 14.3717C58.742 15.4363 58.8291 16.3333 59.0033 17.0627C59.1969 17.7724 59.4872 18.3146 59.8743 18.6891C60.2807 19.044 60.7936 19.2214 61.413 19.2214C62.0517 19.2214 62.5549 19.044 62.9227 18.6891C63.3098 18.3146 63.5904 17.7724 63.7646 17.0627C63.9388 16.3333 64.0259 15.4363 64.0259 14.3717C64.0259 13.3071 63.9388 12.42 63.7646 11.7103C63.5904 11.0006 63.3001 10.4683 62.8936 10.1134C62.5065 9.75858 62.0033 9.58115 61.384 9.58115C60.4356 9.58115 59.7582 9.98529 59.3517 10.7936C58.9453 11.5821 58.742 12.7749 58.742 14.3717Z" fill="#3D3D4A"/>
<path d="M82.7177 17.6837C82.7177 18.768 82.4855 19.6946 82.021 20.4634C81.5758 21.2126 80.8887 21.7843 79.9601 22.1786C79.0311 22.5729 77.8311 22.77 76.3601 22.77C75.2956 22.77 74.3665 22.6911 73.573 22.5334C72.7794 22.3954 71.9762 22.1589 71.1633 21.8237V18.1864C72.0536 18.5807 72.973 18.906 73.9214 19.1623C74.8698 19.4186 75.6633 19.5467 76.302 19.5467C76.9988 19.5467 77.4923 19.4186 77.7827 19.1623C78.0923 18.906 78.2472 18.5709 78.2472 18.1569C78.2472 17.8809 78.1698 17.6344 78.0149 17.4176C77.8601 17.2007 77.5504 16.9543 77.0859 16.6783C76.6214 16.4023 75.9343 16.0474 75.0246 15.6137C74.1343 15.18 73.3988 14.7561 72.8182 14.3421C72.2569 13.9084 71.8311 13.3959 71.5407 12.8044C71.2698 12.1933 71.1343 11.4343 71.1343 10.5274C71.1343 9.02915 71.6859 7.90543 72.7891 7.15629C73.9117 6.40715 75.3827 6.03258 77.202 6.03258C78.1698 6.03258 79.0794 6.13115 79.9311 6.32829C80.7823 6.52543 81.6629 6.85072 82.5726 7.30415L81.2661 10.4683C80.7629 10.2317 80.2698 10.0247 79.7859 9.84729C79.302 9.66986 78.8375 9.53186 78.3923 9.43329C77.9665 9.33472 77.5601 9.28543 77.173 9.28543C76.6698 9.28543 76.2827 9.37415 76.0117 9.55158C75.7601 9.72901 75.6343 9.99515 75.6343 10.35C75.6343 10.6063 75.7117 10.8429 75.8665 11.0597C76.0214 11.2569 76.3214 11.4836 76.7665 11.7399C77.2117 11.9764 77.8601 12.282 78.7117 12.6566C79.5827 13.0311 80.3085 13.4254 80.8887 13.8394C81.4887 14.2337 81.9436 14.7364 82.2532 15.3476C82.5629 15.939 82.7177 16.7177 82.7177 17.6837Z" fill="#FF5C39"/>
<path d="M92.5766 19.251C93.0411 19.251 93.4669 19.2017 93.854 19.1031C94.2605 19.0046 94.6766 18.8863 95.1024 18.7483V22.0307C94.6185 22.2279 94.0476 22.3954 93.3895 22.5334C92.7508 22.6911 91.996 22.77 91.125 22.77C90.196 22.77 89.3637 22.6123 88.6282 22.2969C87.9121 21.9814 87.3508 21.4393 86.9443 20.6704C86.5379 19.8819 86.3347 18.7976 86.3347 17.4176V9.64028H84.4476V7.77728L86.7121 6.29871L87.9895 2.89799H90.9798V6.32828H94.9282V9.64028H90.9798V17.4176C90.9798 18.0287 91.125 18.492 91.4153 18.8074C91.7056 19.1031 92.0927 19.251 92.5766 19.251Z" fill="#FF5C39"/>
<path d="M104.681 6.00301C106.635 6.00301 108.145 6.47615 109.21 7.42243C110.294 8.34901 110.835 9.77829 110.835 11.7103V22.4743H107.613L106.713 20.286H106.597C106.171 20.8577 105.735 21.3309 105.29 21.7054C104.845 22.08 104.332 22.3461 103.752 22.5039C103.171 22.6813 102.465 22.77 101.632 22.77C100.761 22.77 99.9774 22.5926 99.2807 22.2377C98.6032 21.8631 98.0613 21.3013 97.6548 20.5521C97.2484 19.7833 97.0452 18.8173 97.0452 17.6541C97.0452 15.939 97.5968 14.6773 98.7 13.869C99.8226 13.041 101.468 12.5876 103.635 12.5087L106.19 12.42V11.7103C106.19 10.8626 106.006 10.2416 105.639 9.84729C105.271 9.45301 104.768 9.25586 104.129 9.25586C103.471 9.25586 102.784 9.37415 102.068 9.61072C101.352 9.82758 100.635 10.1036 99.9194 10.4387L98.4968 7.45201C99.3484 6.99858 100.287 6.64372 101.313 6.38743C102.358 6.13115 103.481 6.00301 104.681 6.00301ZM104.855 15.0519C103.713 15.0913 102.91 15.3476 102.445 15.8207C102 16.2939 101.777 16.9149 101.777 17.6837C101.777 18.354 101.932 18.837 102.242 19.1327C102.571 19.4087 102.997 19.5467 103.519 19.5467C104.255 19.5467 104.884 19.2707 105.406 18.7187C105.948 18.147 106.219 17.3486 106.219 16.3234V14.9927L104.855 15.0519Z" fill="#FF5C39"/>
<path d="M123.41 6.03258C123.662 6.03258 123.933 6.04243 124.223 6.06215C124.514 6.08186 124.736 6.11143 124.891 6.15086L124.514 10.2909C124.359 10.2514 124.156 10.2219 123.904 10.2021C123.652 10.1627 123.362 10.143 123.033 10.143C122.607 10.143 122.172 10.2219 121.727 10.3796C121.301 10.5176 120.904 10.7443 120.536 11.0597C120.188 11.3751 119.898 11.799 119.665 12.3313C119.452 12.8439 119.346 13.4846 119.346 14.2534V22.4743H114.701V6.32829H118.185L118.881 9.04886H119.114C119.404 8.49686 119.762 7.99415 120.188 7.54072C120.614 7.08729 121.098 6.72258 121.64 6.44658C122.201 6.17058 122.791 6.03258 123.41 6.03258Z" fill="#FF5C39"/>
</g>
<defs>
<clipPath id="clip0_103_546">
<rect width="125" height="23" fill="white"/>
</clipPath>
</defs>
</svg>
