<svg width="20" height="20" viewBox="0 0 20 20" fill="none" xmlns="http://www.w3.org/2000/svg">
<path d="M17 19H3C1.895 19 1 18.105 1 17V3C1 1.895 1.895 1 3 1H17C18.105 1 19 1.895 19 3V17C19 18.105 18.105 19 17 19Z" stroke="#FF5C39" stroke-width="1.5" stroke-linecap="round" stroke-linejoin="round"/>
<path d="M9.999 13.425L12.399 14.676C12.866 14.92 13.412 14.526 13.323 14.01L12.865 11.359L14.807 9.48199C15.185 9.11599 14.977 8.47899 14.454 8.40399L11.771 8.01699L10.571 5.60299C10.337 5.13299 9.662 5.13299 9.429 5.60299L8.229 8.01699L5.546 8.40399C5.024 8.47899 4.815 9.11699 5.193 9.48199L7.135 11.359L6.677 14.01C6.588 14.526 7.134 14.92 7.601 14.676L10.001 13.425" stroke="#FF5C39" stroke-width="1.5" stroke-linecap="round" stroke-linejoin="round"/>
</svg>
